<svg xmlns="http://www.w3.org/2000/svg" viewBox="0 0 200 190">
  <!-- 左耳 -->
  <path d="M40 65 C25 95,22 130,32 140 C43 148,60 135,63 118 C67 103,63 73,52 63 C45 57,42 60,40 65Z"
        fill="#FFF0F5" stroke="#7A6B5D" stroke-width="3.5" stroke-linejoin="round"/>

  <!-- 右耳 -->
  <path d="M160 65 C175 95,178 130,168 140 C157 148,140 135,137 118 C133 103,137 73,148 63 C155 57,158 60,160 65Z"
        fill="#FFF0F5" stroke="#7A6B5D" stroke-width="3.5" stroke-linejoin="round"/>

  <!-- 身体 -->
  <path d="M45 90 C45 55,75 40,100 40 C125 40,155 55,155 90 C158 105,170 120,160 145 C148 168,125 175,100 175 C75 175,52 168,40 145 C30 120,42 105,45 90Z"
        fill="#FFF0F5" stroke="#7A6B5D" stroke-width="3.5" stroke-linejoin="round"/>

  <!-- 嘴部白色区域 -->
  <path d="M70 100 C70 85,85 80,100 80 C115 80,130 85,130 100 C134 115,124 125,114 128 C107 130,93 130,86 128 C76 125,66 115,70 100Z"
        fill="#FFFFFF" stroke="none"/>

  <!-- 左眼 -->
  <ellipse cx="78" cy="95" rx="6" ry="8" fill="#555"/>
  <circle cx="80" cy="92" r="2" fill="#fff"/>

  <!-- 右眼 -->
  <ellipse cx="122" cy="95" rx="6" ry="8" fill="#555"/>
  <circle cx="124" cy="92" r="2" fill="#fff"/>

  <!-- ω 嘴巴 -->
  <path d="M90 115 Q95 108 100 115 Q105 108 110 115"
        fill="none" stroke="#7A6B5D" stroke-width="3" stroke-linecap="round"/>

  <!-- 腮红 -->
  <ellipse cx="58" cy="112" rx="11" ry="7" fill="#FFB6C1" opacity="0.6"/>
  <ellipse cx="142" cy="112" rx="11" ry="7" fill="#FFB6C1" opacity="0.6"/>

  <!-- 白点 -->
  <circle cx="62" cy="78" r="2.5" fill="#fff" opacity="0.8"/>
  <circle cx="80" cy="63" r="2" fill="#fff" opacity="0.8"/>
  <circle cx="120" cy="61" r="2.5" fill="#fff" opacity="0.8"/>
  <circle cx="138" cy="78" r="2" fill="#fff" opacity="0.8"/>
  <circle cx="140" cy="112" r="2.5" fill="#fff" opacity="0.8"/>
  <circle cx="125" cy="148" r="2" fill="#fff" opacity="0.8"/>
  <circle cx="100" cy="155" r="2.5" fill="#fff" opacity="0.8"/>
  <circle cx="75" cy="148" r="2" fill="#fff" opacity="0.8"/>
  <circle cx="58" cy="132" r="2.5" fill="#fff" opacity="0.8"/>
</svg>